<svg 
 xmlns="http://www.w3.org/2000/svg"
 xmlns:xlink="http://www.w3.org/1999/xlink"
 width="938px" height="384px">
<path fill-rule="evenodd"  fill="rgb(36, 36, 36)"
 d="M929.535,354.145 C924.144,363.369 916.811,370.590 907.535,375.812 C898.256,381.036 888.118,383.645 877.118,383.645 C866.006,383.645 855.811,381.036 846.535,375.812 C837.256,370.590 829.894,363.369 824.452,354.145 C819.006,344.924 816.285,334.536 816.285,322.978 C816.285,311.424 819.006,86.795 824.452,77.571 C829.894,68.350 837.256,61.154 846.535,55.988 C855.811,50.821 866.006,48.238 877.118,48.238 C888.228,48.238 898.394,50.821 907.618,55.988 C916.840,61.154 924.144,68.350 929.535,77.571 C934.923,86.795 937.618,311.424 937.618,322.978 C937.618,334.536 934.923,344.924 929.535,354.145 ZM894.118,89.488 C890.118,84.766 884.452,82.404 877.118,82.404 C869.673,82.404 863.952,84.766 859.952,89.488 C855.952,94.212 853.952,314.869 853.952,322.978 C853.952,330.978 855.952,337.340 859.952,342.062 C863.952,346.785 869.673,349.145 877.118,349.145 C884.452,349.145 890.118,346.785 894.118,342.062 C898.118,337.340 900.118,330.978 900.118,322.978 C900.118,314.869 898.118,94.212 894.118,89.488 ZM765.952,50.238 L802.952,50.238 L802.952,382.478 L765.952,382.478 L765.952,50.238 ZM681.618,50.238 L718.618,50.238 L718.618,354.478 L754.285,354.478 L754.285,382.478 L681.618,382.478 L681.618,50.238 ZM638.202,375.812 C628.923,381.036 618.785,383.645 607.785,383.645 C596.673,383.645 586.478,381.036 577.202,375.812 C567.923,370.590 560.561,363.369 555.119,354.145 C549.673,344.924 546.952,334.536 546.952,322.978 C546.952,311.424 549.673,86.795 555.119,77.571 C560.561,68.350 567.923,61.154 577.202,55.988 C586.478,50.821 596.673,48.238 607.785,48.238 C618.895,48.238 629.061,50.821 638.285,55.988 C647.506,61.154 654.811,68.350 660.202,77.571 C665.590,86.795 668.285,311.424 668.285,322.978 C668.285,334.536 665.590,344.924 660.202,354.145 C654.811,363.369 647.478,370.590 638.202,375.812 ZM624.785,89.488 C620.785,84.766 615.118,82.404 607.785,82.404 C600.340,82.404 594.619,84.766 590.618,89.488 C586.619,94.212 584.618,314.869 584.618,322.978 C584.618,330.978 586.619,337.340 590.618,342.062 C594.619,346.785 600.340,349.145 607.785,349.145 C615.118,349.145 620.785,346.785 624.785,342.062 C628.785,337.340 630.785,330.978 630.785,322.978 C630.785,314.869 628.785,94.212 624.785,89.488 ZM585.952,18.738 L629.118,0.404 L629.118,27.738 L585.952,43.404 L585.952,18.738 ZM491.452,310.145 L524.785,310.145 L524.785,337.978 L491.452,337.978 L491.452,382.478 L454.452,382.478 L454.452,50.238 L537.785,50.238 L537.785,79.571 L491.452,79.571 L491.452,310.145 ZM413.119,382.478 L376.119,382.478 L376.119,79.571 L345.119,79.571 L345.119,50.238 L444.452,50.238 L444.452,79.571 L413.119,79.571 L413.119,382.478 ZM299.452,382.478 L277.285,340.145 L277.119,340.145 L277.119,382.478 L240.119,382.478 L240.119,50.238 L295.119,50.238 C304.673,50.238 312.840,51.933 319.619,55.321 C326.395,58.712 331.478,63.321 334.869,69.154 C338.257,74.988 339.952,81.571 339.952,88.904 C339.952,96.795 337.757,318.036 333.369,324.145 C328.978,330.257 322.673,334.645 314.452,337.312 L340.119,382.478 L299.452,382.478 ZM299.702,83.904 C297.869,82.128 295.228,81.238 291.785,81.238 L277.119,81.238 L277.119,315.478 L291.785,315.478 C295.340,315.478 298.007,314.674 299.785,313.062 C301.561,311.452 302.452,94.683 302.452,91.238 C302.452,88.128 301.535,85.683 299.702,83.904 ZM196.702,375.812 C187.423,381.036 177.285,383.645 166.286,383.645 C155.174,383.645 144.978,381.036 135.702,375.812 C126.424,370.590 119.062,363.369 113.619,354.145 C108.174,344.924 105.452,334.536 105.452,322.978 C105.452,311.424 108.174,86.795 113.619,77.571 C119.062,68.350 126.424,61.154 135.702,55.988 C144.978,50.821 155.174,48.238 166.286,48.238 C177.395,48.238 187.561,50.821 196.786,55.988 C206.007,61.154 213.311,68.350 218.702,77.571 C224.090,86.795 226.785,311.424 226.785,322.978 C226.785,334.536 224.090,344.924 218.702,354.145 C213.311,363.369 205.978,370.590 196.702,375.812 ZM183.285,89.488 C179.285,84.766 173.619,82.404 166.286,82.404 C158.840,82.404 153.119,84.766 149.119,89.488 C145.119,94.212 143.119,314.869 143.119,322.978 C143.119,330.978 145.119,337.340 149.119,342.062 C153.119,346.785 158.840,349.145 166.286,349.145 C173.619,349.145 179.285,346.785 183.285,342.062 C187.285,337.340 189.286,330.978 189.286,322.978 C189.286,314.869 187.285,94.212 183.285,89.488 ZM76.702,339.645 C69.978,343.202 61.840,344.978 52.286,344.978 L37.619,344.978 L37.619,382.478 L0.619,382.478 L0.619,50.238 L52.286,50.238 C66.728,50.238 77.812,53.904 85.536,61.238 C93.257,68.571 97.119,78.404 97.119,90.738 C97.119,98.183 95.395,319.174 91.952,325.228 C88.507,331.286 83.424,336.090 76.702,339.645 ZM48.119,79.904 L37.619,79.904 L37.619,315.812 L48.119,315.812 C55.786,315.812 59.619,97.962 59.619,90.738 C59.619,83.516 55.786,79.904 48.119,79.904 Z"/>
</svg>